PathFileType	4	(X/Y/Z)	18_coords_data.trc
DataRate	CameraRate	NumFrames	NumMarkers	Units	OrigDataRate	OrigDataStartFrame	OrigNumFrames
30.0	30.0	7	21	m	30.0	56	66
Frame#	Time	THUMB_TIP	THUMB_IP	THUMB_MCP	THUMB_CMC	INDEX_TIP	INDEX_DIP	INDEX_PIP	INDEX_MCP	MIDDLE_TIP	MIDDLE_DIP	MIDDLE_PIP	MIDDLE_MCP	RING_TIP	RING_DIP	RING_PIP	RING_MCP	PINKY_TIP	PINKY_DIP	PINKY_PIP	PINKY_MCP	WRIST
X1	Y1	Z1	X2	Y2	Z2	X3	Y3	Z3	X4	Y4	Z4	X5	Y5	Z5	X6	Y6	Z6	X7	Y7	Z7	X8	Y8	Z8	X9	Y9	Z9	X10	Y10	Z10	X11	Y11	Z11	X12	Y12	Z12	X13	Y13	Z13	X14	Y14	Z14	X15	Y15	Z15	X16	Y16	Z16	X17	Y17	Z17	X18	Y18	Z18	X19	Y19	Z19	X20	Y20	Z20	X21	Y21	Z21
55	1.8333333333333333	0.031250200271606444	-0.008373880386352539	0.9195280151367188	0.016635499954223632	-0.0034840900897979733	0.940843017578125	-0.000333314001560211	-0.0036262900829315183	0.965947021484375	-0.011805100440979004	0.01817410087585449	0.987072998046875	0.04569029998779297	0.0177091007232666	0.8910029907226562	0.02456439971923828	0.01643239974975586	0.8925989990234375	0.002458709955215454	0.01443649959564209	0.899468017578125	-0.02052440071105957	0.010711999893188476	0.9290919799804688	0.052004901885986325	0.04237870025634766	0.8804879760742188	0.030387899398803712	0.042462600708007815	0.8864429931640625	0.0047802400588989255	0.04060929870605469	0.897114990234375	-0.02288800048828125	0.035105899810791014	0.9271380004882812	0.05295750045776367	0.05584349822998047	0.8991400146484375	0.03295970153808594	0.05890890121459961	0.9027589721679687	0.008156499862670898	0.060468101501464845	0.9102080078125	-0.019093299865722658	0.054194198608398435	0.9352379760742188	0.04675920104980469	0.07256649780273437	0.9319769897460938	0.029414899826049806	0.075502197265625	0.932125	0.011517299652099609	0.07574130249023438	0.9351699829101563	-0.012133000373840332	0.06970870208740235	0.9475040283203126	-0.036654899597167966	0.03817850112915039	1.0035999755859375
56	1.8666666666666667	0.030374000549316407	-0.009176079750061034	0.9190139770507812	0.015967000007629396	-0.004308730125427246	0.9404349975585937	-0.000863785028457641	-0.004259819984436035	0.9657509765625	-0.012183500289916991	0.017531200408935545	0.9867630004882812	0.04444290161132813	0.016462499618530274	0.8906729736328125	0.02325860023498535	0.015224699974060058	0.8920609741210938	0.001305029988288879	0.01334589958190918	0.8987509765625	-0.02152989959716797	0.009850279808044433	0.9289940185546876	0.05073400115966797	0.040924198150634764	0.87972900390625	0.02918190002441406	0.04110359954833984	0.8857360229492187	0.0036445000171661367	0.03938399887084961	0.8965499877929688	-0.023945499420166015	0.034187698364257814	0.9269450073242187	0.05198210144042969	0.05436949920654297	0.8981439819335938	0.031950199127197265	0.05762599945068359	0.9018389892578125	0.00724597978591919	0.05925009918212891	0.9093980102539062	-0.019815900802612304	0.05327399826049805	0.9347160034179688	0.0465260009765625	0.07083779907226563	0.9307459716796875	0.029121299743652344	0.07374749755859375	0.9311480102539063	0.011324600219726562	0.07415409851074219	0.9344769897460937	-0.012324899673461913	0.06866400146484375	0.947010009765625	-0.036848800659179684	0.03759209823608398	1.0033400268554689
57	1.9	0.02959709930419922	-0.009771329879760742	0.9186420288085938	0.01521109962463379	-0.005024590015411377	0.940010986328125	-0.00148618996143341	-0.004961359977722168	0.9653809814453125	-0.012459199905395507	0.01689579963684082	0.9863419799804688	0.043153301239013675	0.015284299850463867	0.8901060180664062	0.022039499282836914	0.014222700119018555	0.8915800170898438	6.7063398659229e-05	0.012413599967956542	0.8984030151367187	-0.02258760070800781	0.00911312961578369	0.9287540283203125	0.04949599838256836	0.0396255989074707	0.8789630126953125	0.02801300048828125	0.03999969863891602	0.8853380126953125	0.002502769947052002	0.03845989990234375	0.8959439697265625	-0.024858699798583985	0.03341310119628906	0.9267529907226563	0.050979900360107425	0.05299639892578125	0.8973519897460938	0.031046300888061523	0.056370201110839846	0.901197998046875	0.006345890045166016	0.05820880126953125	0.9089600219726562	-0.02045400047302246	0.05246780014038086	0.9342750244140625	0.04599700164794922	0.06928980255126953	0.929697998046875	0.02870210075378418	0.072243896484375	0.9303460083007813	0.01099530029296875	0.07276920318603515	0.9339639892578125	-0.012910499572753906	0.06780719757080078	0.9464710083007812	-0.03701620101928711	0.036943901062011716	1.0033099975585937
58	1.9333333333333333	0.028628299713134766	-0.01005620002746582	0.9182340087890625	0.01430900001525879	-0.005473440170288086	0.9396060180664062	-0.001978970050811767	-0.005337669849395752	0.9650609741210937	-0.01301099967956543	0.016549999237060548	0.9861069946289063	0.04209400177001953	0.014756899833679199	0.88997802734375	0.021035100936889647	0.013793600082397462	0.8915029907226563	-0.000953065991401672	0.012010600090026856	0.8981640014648438	-0.023485700607299806	0.008726180076599121	0.92847900390625	0.047929901123046875	0.03915650177001953	0.8780089721679688	0.02654549980163574	0.03956869888305664	0.8845650024414062	0.001160930037498474	0.0380702018737793	0.8955419921875	-0.02582229995727539	0.033042198181152345	0.9266339721679687	0.04957989883422852	0.052360401153564454	0.8959840087890625	0.02975279998779297	0.05572800064086914	0.9002919921875	0.005199009895324707	0.05761660003662109	0.9082659912109375	-0.02108609962463379	0.05199520111083984	0.9340770263671875	0.045652698516845704	0.06795279693603516	0.9283060302734375	0.028272699356079102	0.07089959716796874	0.9294400024414062	0.01075349998474121	0.07152469635009766	0.93343701171875	-0.013135800361633301	0.06707019805908203	0.9463510131835937	-0.03747919845581055	0.0366593017578125	1.0032899780273437
59	1.9666666666666666	0.02813319969177246	-0.00967275047302246	0.917780029296875	0.013798100471496582	-0.005321770191192627	0.9392880249023438	-0.002505719900131225	-0.005336090087890625	0.9649550170898438	-0.013363100051879883	0.01638730049133301	0.9859569702148437	0.04101890182495117	0.014691499710083008	0.8901849975585937	0.019951000213623046	0.013744099617004395	0.8915440063476563	-0.001988590002059936	0.012091400146484375	0.8979509887695313	-0.024495899200439455	0.008760749816894531	0.9282470092773437	0.04549959945678711	0.039230701446533206	0.8761160278320312	0.02414459991455078	0.03963570022583008	0.8832349853515625	-0.000914507985115051	0.03809130096435547	0.8949439697265625	-0.02684390068054199	0.03298989868164062	0.926635009765625	0.04752379989624023	0.05234450149536133	0.894072021484375	0.027779199600219726	0.05559510040283203	0.898719970703125	0.00351757001876831	0.05736920166015625	0.9075700073242188	-0.021693500518798828	0.05177640151977539	0.9339580078125	0.04512400054931641	0.06625620269775391	0.9264520263671875	0.027763099670410157	0.06924800109863281	0.928375	0.010364399909973145	0.06996649932861328	0.932697998046875	-0.01345800018310547	0.06660590362548828	0.9462039794921875	-0.03775019836425781	0.03666640090942383	1.0032100219726563
60	2.0	0.027738100051879884	-0.008828539848327637	0.917469970703125	0.013376700401306152	-0.0047907400131225585	0.9389249877929687	-0.002849139928817749	-0.005067249774932861	0.9644990234375	-0.013732999801635741	0.01659429931640625	0.9856199951171875	0.03985430145263672	0.014806699752807618	0.8900570068359375	0.018784000396728517	0.013850600242614745	0.8912009887695312	-0.003212830066680908	0.012315099716186523	0.8977960205078125	-0.02561940002441406	0.008866080284118652	0.9280750122070313	0.0431427001953125	0.039414901733398434	0.874531005859375	0.022061899185180665	0.03978889846801758	0.8821309814453125	-0.0026424200534820546	0.03820550155639649	0.8944130249023438	-0.028017799377441407	0.033102798461914065	0.9265469970703125	0.045487098693847657	0.05266759872436524	0.8920230102539063	0.025837900161743164	0.0558468017578125	0.8973820190429688	0.001772240042686462	0.05757740020751953	0.9069650268554688	-0.02248349952697754	0.05183029937744141	0.933697998046875	0.04409489822387695	0.06594059753417969	0.92485302734375	0.026881399154663085	0.06893689727783203	0.9272459716796875	0.009493840217590333	0.06975769805908204	0.9320230102539062	-0.013965100288391112	0.06657399749755859	0.945760986328125	-0.037907398223876954	0.0366432991027832	1.003280029296875
61	2.033333333333333	0.02717070007324219	-0.008056300163269043	0.9170549926757813	0.012684200286865234	-0.004199250221252442	0.9386309814453125	-0.003611700057983398	-0.004745629787445069	0.9642659912109375	-0.014315999984741212	0.01678260040283203	0.9853870239257813	0.03853990173339844	0.01488759994506836	0.8897080078125	0.017598899841308593	0.014005299568176269	0.8907520141601563	-0.004427700042724609	0.012465299606323242	0.8976270141601562	-0.02663520050048828	0.009036600112915039	0.928073974609375	0.04125339889526367	0.03968719863891602	0.8734639892578125	0.02032029914855957	0.04006230163574219	0.8812420043945313	-0.004248159885406494	0.03844779968261719	0.8940029907226562	-0.028957399368286132	0.03327479934692383	0.9265269775390625	0.04380120086669922	0.052854598999023436	0.8908309936523438	0.024255500793457032	0.05607580184936523	0.8964819946289062	0.00038309898972511204	0.05770009994506836	0.90647900390625	-0.023298999786376954	0.05195809936523438	0.933666015625	0.04320989990234375	0.06606659698486328	0.9237750244140625	0.025843299865722657	0.0690376968383789	0.9266959838867187	0.008596960067749024	0.0699269027709961	0.9317030029296876	-0.014927499771118164	0.06666709899902344	0.945552001953125	-0.03835150146484375	0.036791500091552735	1.0033499755859374
